<svg width="17" height="16" viewBox="0 0 17 16" fill="none" xmlns="http://www.w3.org/2000/svg">
<path d="M12.9722 13.5695H14.5694V7.18064H9.77776V13.5695H11.375V8.77786H12.9722V13.5695ZM1.79165 13.5695V1.59036C1.79165 1.37855 1.87579 1.17542 2.02556 1.02566C2.17533 0.875887 2.37846 0.791748 2.59026 0.791748H13.7708C13.9826 0.791748 14.1858 0.875887 14.3355 1.02566C14.4853 1.17542 14.5694 1.37855 14.5694 1.59036V5.58341H16.1667V13.5695H16.9653V15.1667H0.993042V13.5695H1.79165ZM4.9861 7.18064V8.77786H6.58332V7.18064H4.9861ZM4.9861 10.3751V11.9723H6.58332V10.3751H4.9861ZM4.9861 3.98619V5.58341H6.58332V3.98619H4.9861Z" fill="#44AD9A"/>
</svg>
