<svg width="46" height="46" viewBox="0 0 46 46" fill="none" xmlns="http://www.w3.org/2000/svg">
<circle cx="22.9449" cy="22.9449" r="21.9449" stroke="#3897F0" stroke-width="2"/>
<path d="M11 23L10.2191 22.3753L9.71938 23L10.2191 23.6247L11 23ZM20 24C20.5523 24 21 23.5523 21 23C21 22.4477 20.5523 22 20 22V24ZM14.2191 17.3753L10.2191 22.3753L11.7809 23.6247L15.7809 18.6247L14.2191 17.3753ZM10.2191 23.6247L14.2191 28.6247L15.7809 27.3753L11.7809 22.3753L10.2191 23.6247ZM11 24H20V22H11V24Z" fill="#3897F0"/>
<path d="M22.3424 31.5571L22.5068 30.5707L22.3424 31.5571ZM29.9391 31.7477L30.5855 32.5107L29.9391 31.7477ZM24.0136 14.1644L23.8492 13.178L24.0136 14.1644ZM29.9391 14.2523L30.5855 13.4893L29.9391 14.2523ZM22.5068 15.4293L24.178 15.1508L23.8492 13.178L22.178 13.4565L22.5068 15.4293ZM30 20.0828V25.9172H32V20.0828H30ZM24.178 30.8492L22.5068 30.5707L22.178 32.5435L23.8492 32.822L24.178 30.8492ZM20 19.1319V18.3885H18V19.1319H20ZM20 27.6115V27.066H18V27.6115H20ZM22.5068 30.5707C21.6833 30.4334 21.1573 30.3439 20.7726 30.2294C20.4147 30.1228 20.301 30.0276 20.237 29.9521L18.7109 31.2449C19.1209 31.7288 19.6432 31.9799 20.202 32.1462C20.7339 32.3046 21.4052 32.4147 22.178 32.5435L22.5068 30.5707ZM18 27.6115C18 28.395 17.9982 29.0752 18.0669 29.626C18.1392 30.2044 18.301 30.7609 18.7109 31.2449L20.237 29.9521C20.173 29.8766 20.0978 29.7487 20.0515 29.3782C20.0018 28.9799 20 28.4463 20 27.6115H18ZM30 25.9172C30 27.5917 29.9976 28.7403 29.8773 29.5879C29.7609 30.4077 29.5567 30.7611 29.2927 30.9847L30.5855 32.5107C31.3825 31.8356 31.7086 30.9176 31.8575 29.8689C32.0024 28.8479 32 27.5306 32 25.9172H30ZM23.8492 32.822C25.4406 33.0872 26.7396 33.3061 27.7705 33.3311C28.8294 33.3566 29.7885 33.1858 30.5855 32.5107L29.2927 30.9847C29.0288 31.2082 28.6467 31.3516 27.8189 31.3316C26.963 31.311 25.8297 31.1245 24.178 30.8492L23.8492 32.822ZM24.178 15.1508C25.8297 14.8755 26.963 14.689 27.8189 14.6684C28.6467 14.6484 29.0288 14.7918 29.2927 15.0153L30.5855 13.4893C29.7885 12.8142 28.8294 12.6434 27.7705 12.6689C26.7396 12.6939 25.4406 12.9128 23.8492 13.178L24.178 15.1508ZM32 20.0828C32 18.4694 32.0024 17.1521 31.8575 16.1311C31.7086 15.0824 31.3825 14.1644 30.5855 13.4893L29.2927 15.0153C29.5567 15.2389 29.7609 15.5923 29.8773 16.4121C29.9976 17.2597 30 18.4083 30 20.0828H32ZM22.178 13.4565C21.4052 13.5853 20.7339 13.6954 20.202 13.8538C19.6432 14.0201 19.1209 14.2712 18.7109 14.7551L20.237 16.0479C20.301 15.9724 20.4147 15.8772 20.7726 15.7706C21.1573 15.6561 21.6833 15.5666 22.5068 15.4293L22.178 13.4565ZM20 18.3885C20 17.5537 20.0018 17.0201 20.0515 16.6218C20.0978 16.2513 20.173 16.1234 20.237 16.0479L18.7109 14.7551C18.301 15.2391 18.1392 15.7956 18.0669 16.374C17.9982 16.9248 18 17.605 18 18.3885H20Z" fill="#3897F0"/>
</svg>
