<svg width="18" height="17" viewBox="0 0 18 17" fill="none" xmlns="http://www.w3.org/2000/svg">
<path d="M17.7639 13.8324C17.7638 14.4903 17.5238 15.1255 17.0889 15.6191C16.654 16.1127 16.054 16.4308 15.4013 16.5137C14.7487 16.5966 14.0882 16.4386 13.5437 16.0694C12.9992 15.7002 12.608 15.1451 12.4435 14.5081H4.24895C3.17363 14.5081 2.14235 14.081 1.38199 13.3206C0.621626 12.5602 0.194458 11.529 0.194458 10.4536C0.194458 9.37832 0.621626 8.34704 1.38199 7.58668C2.14235 6.82631 3.17363 6.39915 4.24895 6.39915H12.3579C12.8956 6.39915 13.4112 6.18556 13.7914 5.80538C14.1716 5.4252 14.3852 4.90956 14.3852 4.3719C14.3852 3.83424 14.1716 3.31861 13.7914 2.93843C13.4112 2.55824 12.8956 2.34466 12.3579 2.34466H4.24895C4.06973 2.34466 3.89785 2.27347 3.77112 2.14674C3.64439 2.02001 3.5732 1.84813 3.5732 1.66891C3.5732 1.48969 3.64439 1.31781 3.77112 1.19109C3.89785 1.06436 4.06973 0.993164 4.24895 0.993164H12.3579C13.254 0.993164 14.1134 1.34914 14.747 1.98277C15.3807 2.61641 15.7367 3.47581 15.7367 4.3719C15.7367 5.268 15.3807 6.1274 14.747 6.76103C14.1134 7.39467 13.254 7.75064 12.3579 7.75064H4.24895C3.53207 7.75064 2.84455 8.03542 2.33764 8.54233C1.83073 9.04924 1.54595 9.73676 1.54595 10.4536C1.54595 11.1705 1.83073 11.858 2.33764 12.3649C2.84455 12.8718 3.53207 13.1566 4.24895 13.1566H12.4435C12.608 12.5197 12.9992 11.9645 13.5437 11.5953C14.0882 11.2261 14.7487 11.0682 15.4013 11.1511C16.054 11.234 16.654 11.552 17.0889 12.0456C17.5238 12.5392 17.7638 13.1745 17.7639 13.8324Z" fill="#0994CF"/>
</svg>
