<svg width="32" height="32" viewBox="0 0 32 32" fill="none" xmlns="http://www.w3.org/2000/svg">
<circle cx="15.5433" cy="15.5433" r="14.5433" stroke="#FECA2F" stroke-width="2"/>
<path d="M9 13.8462L8.284 14.5443L7.60335 13.8462L8.284 13.1481L9 13.8462ZM22 20C22 20.5523 21.5523 21 21 21C20.4477 21 20 20.5523 20 20L22 20ZM12.034 18.3904L8.284 14.5443L9.716 13.1481L13.466 16.9942L12.034 18.3904ZM8.284 13.1481L12.034 9.3019L13.466 10.6981L9.716 14.5443L8.284 13.1481ZM9 12.8462L15 12.8462L15 14.8462L9 14.8462L9 12.8462ZM22 19.8462L22 20L20 20L20 19.8462L22 19.8462ZM15 12.8462C18.866 12.8462 22 15.9802 22 19.8462L20 19.8462C20 17.0847 17.7614 14.8462 15 14.8462L15 12.8462Z" fill="#FECA2F"/>
</svg>
