<svg width="100" height="100" viewBox="0 0 100 100" fill="none" xmlns="http://www.w3.org/2000/svg">
<rect width="100" height="100" rx="10" fill="#EEEEEE"/>
<mask id="mask0_165_672" style="mask-type:alpha" maskUnits="userSpaceOnUse" x="12" y="12" width="76" height="76">
<path d="M12.5 20.5C12.5 16.7288 12.5 14.8431 13.6716 13.6716C14.8431 12.5 16.7288 12.5 20.5 12.5H79.5C83.2712 12.5 85.1569 12.5 86.3284 13.6716C87.5 14.8431 87.5 16.7288 87.5 20.5V79.5C87.5 83.2712 87.5 85.1569 86.3284 86.3284C85.1569 87.5 83.2712 87.5 79.5 87.5H20.5C16.7288 87.5 14.8431 87.5 13.6716 86.3284C12.5 85.1569 12.5 83.2712 12.5 79.5V20.5Z" fill="#273B4A"/>
</mask>
<g mask="url(#mask0_165_672)">
<path d="M33.3223 41.6777L15.0193 59.9807C13.7787 61.2213 13.1583 61.8417 12.8536 62.6357C12.5489 63.4297 12.595 64.3058 12.6873 66.058L14.5833 102.083H87.5V72.3129C87.5 70.5583 87.5 69.681 87.154 68.9041C86.808 68.1272 86.1559 67.5403 84.8517 66.3665L69.4875 52.5387C68.1519 51.3367 67.4841 50.7357 66.6866 50.7566C65.889 50.7776 65.2538 51.4129 63.9832 52.6835L52.0888 64.5778C51.1424 65.5242 50.6692 65.9974 50.1482 65.8971C49.6272 65.7968 49.3636 65.1817 48.8363 63.9515L39.8273 42.9304C38.7729 40.47 38.2456 39.2398 37.2036 39.0391C36.1615 38.8385 35.2151 39.7849 33.3223 41.6777Z" fill="#7E869E" fill-opacity="0.25" stroke="white"/>
</g>
<path d="M12.5 20.5C12.5 16.7288 12.5 14.8431 13.6716 13.6716C14.8431 12.5 16.7288 12.5 20.5 12.5H79.5C83.2712 12.5 85.1569 12.5 86.3284 13.6716C87.5 14.8431 87.5 16.7288 87.5 20.5V79.5C87.5 83.2712 87.5 85.1569 86.3284 86.3284C85.1569 87.5 83.2712 87.5 79.5 87.5H20.5C16.7288 87.5 14.8431 87.5 13.6716 86.3284C12.5 85.1569 12.5 83.2712 12.5 79.5V20.5Z" stroke="white" stroke-width="1.2"/>
<circle cx="68.75" cy="31.25" r="6.25" fill="white"/>
</svg>
