<svg width="12" height="17" viewBox="0 0 12 17" fill="none" xmlns="http://www.w3.org/2000/svg">
<path d="M5.67917 0.400757C2.70572 0.400757 0.296387 2.60587 0.296387 5.33729C0.296387 10.0601 5.67917 16.2194 5.67917 16.2194C5.67917 16.2194 11.062 10.0592 11.062 5.33729C11.062 2.60686 8.65262 0.400757 5.67917 0.400757ZM5.67917 8.06871C4.90826 8.06871 4.16893 7.7873 3.62382 7.28637C3.07871 6.78545 2.77247 6.10605 2.77247 5.39764C2.77247 4.68923 3.07871 4.00983 3.62382 3.50891C4.16893 3.00798 4.90826 2.72657 5.67917 2.72657C6.45007 2.72657 7.18941 3.00798 7.73452 3.50891C8.27963 4.00983 8.58587 4.68923 8.58587 5.39764C8.58587 6.10605 8.27963 6.78545 7.73452 7.28637C7.18941 7.7873 6.45007 8.06871 5.67917 8.06871Z" fill="#FF9680"/>
</svg>
