<svg width="25" height="24" viewBox="0 0 25 24" fill="none" xmlns="http://www.w3.org/2000/svg">
<path d="M16.4526 4.19155L16.4052 3.19267L20.2281 3.01164M16.4526 4.19155L20.2281 3.01164M16.4526 4.19155L16.4052 3.19267C16.0324 3.21032 15.6795 3.36637 15.4155 3.63033L9.49997 9.5459C8.71892 10.3269 8.71892 11.5933 9.49997 12.3743L12.0364 14.9108C12.8175 15.6919 14.0838 15.6919 14.8649 14.9108L20.785 8.9907C21.0407 8.73493 21.1955 8.39536 21.2207 8.03454L20.2231 7.96487M16.4526 4.19155L20.2231 7.96487M20.2281 3.01164C20.9455 2.97766 21.5319 3.57736 21.4819 4.29389L21.2207 8.03454L20.2231 7.96487M20.2281 3.01164L20.2231 7.96487" stroke="#7E7E7E" stroke-width="2"/>
<path d="M10.5 3C10.5 2.44772 10.0523 2 9.5 2H8.5C5.18629 2 2.5 4.68629 2.5 8V16C2.5 19.3137 5.18629 22 8.5 22H16.5C19.8137 22 22.5 19.3137 22.5 16V15C22.5 14.4477 22.0523 14 21.5 14C20.9477 14 20.5 14.4477 20.5 15V16C20.5 18.2091 18.7091 20 16.5 20H8.5C6.29086 20 4.5 18.2091 4.5 16V8C4.5 5.79086 6.29086 4 8.5 4H9.5C10.0523 4 10.5 3.55228 10.5 3Z" fill="#7E7E7E"/>
<path d="M18.5 7C18.5 7.55228 18.0523 8 17.5 8C16.9477 8 16.5 7.55228 16.5 7C16.5 6.44772 16.9477 6 17.5 6C18.0523 6 18.5 6.44772 18.5 7Z" fill="#7E7E7E"/>
</svg>
