<svg width="16" height="17" viewBox="0 0 16 17" fill="none" xmlns="http://www.w3.org/2000/svg">
<path d="M7.99996 15.1667C5.05463 15.1667 2.66663 13.4454 2.66663 10.5V10.4414C2.66663 9.02937 3.45929 7.90004 4.66663 7.16671C5.82129 6.46537 6.50463 5.17337 6.33329 3.83337L5.99996 1.83337L7.23596 2.36337C9.46225 3.31736 11.3168 4.97114 12.5186 7.07404C13.0526 8.00861 13.3334 9.06635 13.3333 10.1427V10.5C13.3333 11.5414 13.0346 12.43 12.5186 13.1434" stroke="white" stroke-width="1.33333" stroke-linecap="round" stroke-linejoin="round"/>
<path d="M8 15.1667C6.89533 15.1667 6 14.2114 6 13.0334C6 12.1 6.67733 11.3527 7.27333 10.668L8 9.83337L8.72667 10.668C9.32267 11.3534 10 12.1 10 13.0334C10 14.2114 9.10467 15.1667 8 15.1667Z" stroke="white" stroke-width="1.33333" stroke-linecap="round" stroke-linejoin="round"/>
</svg>
