<svg width="17" height="16" viewBox="0 0 17 16" fill="none" xmlns="http://www.w3.org/2000/svg">
<path d="M15.7847 5.63406L11.1503 4.90408L9.07866 0.352135C9.02208 0.227506 8.92899 0.126615 8.814 0.0652895C8.5256 -0.0890138 8.17515 0.0395723 8.03096 0.352135L5.95928 4.90408L1.32493 5.63406C1.19716 5.65384 1.08034 5.71912 0.990901 5.81803C0.882775 5.93848 0.823193 6.10053 0.825247 6.26856C0.8273 6.4366 0.890821 6.59688 1.00185 6.71418L4.35487 10.2572L3.5627 15.2602C3.54413 15.3766 3.55601 15.4963 3.597 15.6057C3.638 15.7151 3.70646 15.8099 3.79464 15.8793C3.88281 15.9488 3.98716 15.99 4.09586 15.9984C4.20456 16.0068 4.31326 15.982 4.40963 15.9269L8.55481 13.5648L12.7 15.9269C12.8132 15.9922 12.9446 16.0139 13.0705 15.9902C13.3881 15.9308 13.6017 15.6044 13.5469 15.2602L12.7547 10.2572L16.1078 6.71418C16.199 6.61724 16.2593 6.49064 16.2775 6.35216C16.3268 6.00597 16.1041 5.68549 15.7847 5.63406Z" fill="#FF5733"/>
</svg>
